<svg width="38" height="38" viewBox="0 0 38 38" fill="none" xmlns="http://www.w3.org/2000/svg">
<path d="M19 38C29.4934 38 38 29.4934 38 19C38 8.50659 29.4934 0 19 0C8.50659 0 0 8.50659 0 19C0 29.4934 8.50659 38 19 38Z" fill="url(#paint0_linear_202_2)"/>
<path fill-rule="evenodd" clip-rule="evenodd" d="M26.7847 9.40065C26.0012 9.75613 17.1682 13.8798 9.97363 17.2213C9.40381 17.5058 9.04761 18.0745 9.04761 18.6432C9.04761 19.2121 9.47502 19.6387 9.97363 19.7098C10.401 19.7808 14.675 20.4207 14.675 20.4207L15.8861 27.5304L16.5271 24.4021L15.6011 19.7098L24.2916 13.311L17.1682 21.1317L19.6614 23.9755C19.8039 24.1178 22.8669 27.6726 23.0806 27.8859C23.4368 28.2414 24.0067 28.9524 24.2916 28.9524C24.7902 28.9524 25.2889 28.2414 25.5026 27.175C25.7162 26.1795 27.1409 19.2832 28.9218 10.1116C29.1355 9.11628 28.2095 8.68969 26.7847 9.40065Z" fill="white"/>
<defs>
<linearGradient id="paint0_linear_202_2" x1="19" y1="0" x2="19" y2="38" gradientUnits="userSpaceOnUse">
<stop stop-color="#479EE9"/>
<stop offset="1" stop-color="#3387CF"/>
</linearGradient>
</defs>
</svg>
