<svg width="38" height="38" viewBox="0 0 38 38" fill="none" xmlns="http://www.w3.org/2000/svg">
<mask id="mask0_8_183" style="mask-type:alpha" maskUnits="userSpaceOnUse" x="0" y="0" width="38" height="38">
<circle cx="19" cy="19" r="19" fill="white"/>
</mask>
<g mask="url(#mask0_8_183)">
<circle cx="19" cy="19.0569" r="19" fill="white"/>
<path d="M7.33352 0.142116C5.46018 0.390711 3.91535 1.10986 2.62799 2.31733C1.17194 3.67572 0.346256 5.43365 0.0976618 7.671C0.0355134 8.16819 0 10.6009 0 13.6373V18.7601L2.00651 18.698C9.90824 18.4671 12.7493 17.748 15.1997 15.3775C17.1618 13.4775 18.023 11.2135 18.4226 6.95185C18.5646 5.3271 18.7333 2.13088 18.7333 0.816875V6.16359e-05L13.4773 0.00894004C9.58862 0.0178184 7.98164 0.0533321 7.33352 0.142116Z" fill="black"/>
<path d="M19.2225 0.372955C19.2403 0.586036 19.2847 1.55378 19.3113 2.53041C19.4356 6.77428 19.7552 9.49108 20.3501 11.3644C21.1935 14.0102 22.7739 15.8747 25.171 17.0732C27.1775 18.0765 30.1962 18.5293 35.9405 18.698L38.0002 18.7601V13.6373C38.0002 7.20933 37.9203 6.41027 37.1124 4.71449C35.8605 2.11312 33.6143 0.532766 30.5691 0.133238C29.77 0.0266969 28.4649 6.16359e-05 24.372 6.16359e-05H19.187L19.2225 0.372955Z" fill="black"/>
<path d="M0 24.3539C0 27.195 0.0443917 29.8763 0.0887835 30.3202C0.319621 32.4865 1.16306 34.2977 2.5836 35.6561C3.92423 36.9257 5.39804 37.6005 7.43118 37.8668C8.26574 37.9734 9.50871 38 13.6194 38H18.76L18.6978 35.9313C18.467 28.1538 17.7123 25.1441 15.3862 22.7558C13.5572 20.8913 11.24 19.9857 7.32464 19.5862C6.16157 19.4708 5.0429 19.4086 0.870078 19.2311L0 19.1955V24.3539Z" fill="black"/>
<path d="M37.5288 19.2304C37.5199 19.2393 36.641 19.2659 35.5667 19.3014C28.0556 19.5234 25.0458 20.3135 22.6753 22.6841C20.3581 25.0102 19.5235 28.091 19.3104 35.2026C19.2838 36.126 19.2394 37.1381 19.2216 37.44L19.1772 37.9993H24.3533C29.9822 37.9993 30.9499 37.9372 32.2728 37.511C35.4868 36.4545 37.5377 33.8442 37.9106 30.3195C37.955 29.8756 37.9993 27.1943 37.9993 24.3532V19.1771L37.7685 19.1949C37.6442 19.2126 37.5377 19.2215 37.5288 19.2304Z" fill="black"/>
</g>
</svg>
