<svg width="22" height="22" viewBox="0 0 22 22" fill="none" xmlns="http://www.w3.org/2000/svg">
<g clip-path="url(#clip0_2_1579)">
<path d="M5.0383 4.36266C8.28634 1.42461 13.1472 1.37968 16.4401 4.06167L13.83 4.1605C13.4931 4.17398 13.2325 4.45251 13.246 4.78945C13.2595 5.1174 13.529 5.37347 13.8525 5.37347C13.8615 5.37347 13.866 5.37347 13.8749 5.37347L17.8822 5.22521C18.2102 5.21174 18.4662 4.94668 18.4662 4.61873V4.57381C18.4662 4.56482 18.4662 4.56033 18.4662 4.55135V4.54685L18.318 0.584518C18.3045 0.247585 18.0215 -0.0129772 17.689 0.000500094C17.3521 0.0139774 17.0915 0.292509 17.105 0.629442L17.1994 3.11376C15.5686 1.77951 13.5605 1.00681 11.4131 0.898989C8.75356 0.764216 6.19736 1.67618 4.22517 3.46418C1.51173 5.92154 0.361668 9.65926 1.22422 13.2173C1.2916 13.4958 1.53869 13.68 1.81273 13.68C1.86215 13.68 1.90707 13.6755 1.95649 13.662C2.27994 13.5812 2.4821 13.2532 2.40124 12.9298C1.64651 9.80302 2.65282 6.51904 5.0383 4.36266Z" fill="#41AA34"/>
<path d="M20.7753 8.78323C20.6944 8.45978 20.3665 8.25762 20.043 8.33848C19.7196 8.41934 19.5174 8.74729 19.5983 9.07075C20.3575 12.1975 19.3467 15.4815 16.9612 17.6378C15.2855 19.1518 13.183 19.8975 11.0896 19.8975C9.09042 19.8975 7.09578 19.2192 5.48748 17.8804L8.12904 17.6423C8.46148 17.6109 8.70857 17.3189 8.67712 16.9819C8.64567 16.645 8.35366 16.4024 8.01673 16.4339L4.02294 16.7933C3.6905 16.8247 3.44342 17.1167 3.47487 17.4536L3.83426 21.4474C3.86122 21.7619 4.12627 22 4.43625 22C4.45422 22 4.47219 22 4.49016 21.9955C4.8226 21.9641 5.06968 21.6721 5.03824 21.3351L4.8226 18.9047C6.45336 20.2255 8.4525 20.9937 10.5864 21.1015C10.7571 21.1105 10.9278 21.115 11.0941 21.115C13.5694 21.115 15.9234 20.2075 17.7743 18.5363C20.4878 16.079 21.6378 12.3457 20.7753 8.78323Z" fill="#41AA34"/>
</g>
<defs>
<clipPath id="clip0_2_1579">
<rect width="22" height="22" fill="white"/>
</clipPath>
</defs>
</svg>
