<svg width="38" height="38" viewBox="0 0 38 38" fill="none" xmlns="http://www.w3.org/2000/svg">
<circle cx="19" cy="19" r="19" fill="url(#paint0_linear_2_1358)"/>
<path d="M28.2057 21.1412C27.7876 20.624 27.9072 20.3939 28.2057 19.9316C28.2111 19.9263 31.6626 15.2544 32.0182 13.67L32.0203 13.669C32.1971 13.0916 32.0203 12.6672 31.1658 12.6672H28.3382C27.6184 12.6672 27.2865 13.0314 27.1087 13.4388C27.1087 13.4388 25.6691 16.8145 23.6324 19.0027C22.9751 19.635 22.6712 19.8376 22.3124 19.8376C22.1357 19.8376 21.8609 19.635 21.8609 19.0576V13.669C21.8609 12.9765 21.6594 12.6672 21.0635 12.6672H16.6174C16.1658 12.6672 15.8975 12.9902 15.8975 13.2911C15.8975 13.9476 16.9158 14.0986 17.0214 15.9458V19.9537C17.0214 20.832 16.8587 20.9935 16.4977 20.9935C15.5365 20.9935 13.2036 17.6041 11.821 13.7249C11.5419 12.9723 11.2693 12.6683 10.5441 12.6683H7.71543C6.90832 12.6683 6.74561 13.0325 6.74561 13.4399C6.74561 14.1598 7.70681 17.7392 11.2154 22.4681C13.5538 25.696 16.8469 27.445 19.8426 27.445C21.6432 27.445 21.863 27.0566 21.863 26.3884C21.863 23.3041 21.7003 23.0127 22.6023 23.0127C23.0204 23.0127 23.7402 23.2154 25.4212 24.7724C27.3425 26.6185 27.6583 27.445 28.7337 27.445H31.5613C32.3673 27.445 32.7757 27.0566 32.5408 26.2902C32.0031 24.6784 28.3695 21.3629 28.2057 21.1412V21.1412Z" fill="white"/>
<defs>
<linearGradient id="paint0_linear_2_1358" x1="19" y1="0" x2="19" y2="38" gradientUnits="userSpaceOnUse">
<stop stop-color="#5FB4EF"/>
<stop offset="1" stop-color="#3B85DB"/>
</linearGradient>
</defs>
</svg>
